<svg width="63" height="63" viewBox="0 0 63 63" fill="none" xmlns="http://www.w3.org/2000/svg">
<ellipse cx="31.4985" cy="31.5" rx="31.4985" ry="31.5" fill="#D9D9D9"/>
<path d="M62.497 31.5C62.497 48.6208 48.6185 62.5 31.4985 62.5C14.3785 62.5 0.5 48.6208 0.5 31.5C0.5 14.3792 14.3785 0.5 31.4985 0.5C48.6185 0.5 62.497 14.3792 62.497 31.5Z" stroke="white" stroke-opacity="0.2"/>
<path d="M47.5 58C47.5 58 47.8778 42.84 30.8687 31.5" stroke="white" stroke-opacity="0.2"/>
<path d="M52.9176 52.29C52.9176 52.29 53.5475 36.54 36.5383 25.2" stroke="white" stroke-opacity="0.2"/>
<path d="M57.9573 44.73C57.9573 44.73 58.5873 28.98 41.5781 17.64" stroke="white" stroke-opacity="0.2"/>
<path d="M62 35.5C62 35.5 63.0092 20.34 46 9" stroke="white" stroke-opacity="0.2"/>
<path d="M0.5 31.5C0.5 31.5 18.5841 39.69 30.5535 31.5" stroke="white" stroke-opacity="0.2"/>
<path d="M2 40.95C2 40.95 19.8441 49.14 31.8136 40.95" stroke="white" stroke-opacity="0.2"/>
<path d="M6.5 50C6.5 50 24.8839 58.59 36.8533 50.4" stroke="white" stroke-opacity="0.2"/>
<path d="M47.5 5C47.5 5 31.8136 13.23 30.8687 31.185" stroke="white" stroke-opacity="0.2"/>
<path d="M36.5382 3.78003C36.5382 3.78003 20.474 12.285 19.5291 30.24" stroke="white" stroke-opacity="0.2"/>
<path d="M26.4587 1.89001C26.4587 1.89001 10.3944 10.395 9.44946 28.35" stroke="white" stroke-opacity="0.2"/>
</svg>
