<svg width="101" height="110" viewBox="0 0 101 110" fill="none" xmlns="http://www.w3.org/2000/svg">
<path d="M26.1614 106H24.9914V97.745H22.0924V96.718H29.0474V97.745H26.1614V106ZM28.6785 99.032H29.9005L31.4085 102.997C31.4952 103.231 31.5732 103.456 31.6425 103.673C31.7205 103.89 31.7899 104.102 31.8505 104.31C31.9112 104.509 31.9589 104.704 31.9935 104.895H32.0455C32.0975 104.678 32.1799 104.397 32.2925 104.05C32.4052 103.695 32.5222 103.339 32.6435 102.984L34.0605 99.032H35.2955L32.2925 106.962C32.1279 107.395 31.9329 107.772 31.7075 108.093C31.4909 108.422 31.2222 108.674 30.9015 108.847C30.5895 109.029 30.2082 109.12 29.7575 109.12C29.5495 109.12 29.3675 109.107 29.2115 109.081C29.0555 109.064 28.9212 109.042 28.8085 109.016V108.106C28.9039 108.123 29.0165 108.141 29.1465 108.158C29.2852 108.175 29.4282 108.184 29.5755 108.184C29.8442 108.184 30.0739 108.132 30.2645 108.028C30.4639 107.933 30.6329 107.79 30.7715 107.599C30.9102 107.417 31.0272 107.2 31.1225 106.949L31.4865 106.026L28.6785 99.032ZM39.7125 98.902C40.5705 98.902 41.2595 99.201 41.7795 99.799C42.3081 100.397 42.5725 101.298 42.5725 102.503C42.5725 103.292 42.4511 103.959 42.2085 104.505C41.9745 105.042 41.6408 105.45 41.2075 105.727C40.7828 105.996 40.2801 106.13 39.6995 106.13C39.3441 106.13 39.0278 106.082 38.7505 105.987C38.4731 105.892 38.2348 105.77 38.0355 105.623C37.8448 105.467 37.6801 105.298 37.5415 105.116H37.4635C37.4808 105.263 37.4981 105.45 37.5155 105.675C37.5328 105.9 37.5415 106.095 37.5415 106.26V109.12H36.3975V99.032H37.3335L37.4895 99.981H37.5415C37.6801 99.7817 37.8448 99.5997 38.0355 99.435C38.2348 99.2703 38.4688 99.1403 38.7375 99.045C39.0148 98.9497 39.3398 98.902 39.7125 98.902ZM39.5045 99.864C39.0365 99.864 38.6595 99.955 38.3735 100.137C38.0875 100.31 37.8795 100.575 37.7495 100.93C37.6195 101.285 37.5501 101.736 37.5415 102.282V102.503C37.5415 103.075 37.6021 103.56 37.7235 103.959C37.8448 104.358 38.0485 104.661 38.3345 104.869C38.6291 105.077 39.0278 105.181 39.5305 105.181C39.9551 105.181 40.3018 105.064 40.5705 104.83C40.8478 104.596 41.0515 104.28 41.1815 103.881C41.3201 103.474 41.3895 103.01 41.3895 102.49C41.3895 101.693 41.2335 101.056 40.9215 100.579C40.6181 100.102 40.1458 99.864 39.5045 99.864ZM45.5395 99.032V101.931H49.3225V99.032H50.4665V106H49.3225V102.893H45.5395V106H44.3955V99.032H45.5395ZM53.7519 103.283C53.7519 103.361 53.7475 103.474 53.7389 103.621C53.7389 103.76 53.7345 103.911 53.7259 104.076C53.7172 104.232 53.7085 104.384 53.6999 104.531C53.6912 104.67 53.6825 104.782 53.6739 104.869L57.4049 99.032H58.8089V106H57.7429V101.892C57.7429 101.753 57.7429 101.571 57.7429 101.346C57.7515 101.121 57.7602 100.9 57.7689 100.683C57.7775 100.458 57.7862 100.289 57.7949 100.176L54.0899 106H52.6729V99.032H53.7519V103.283ZM64.3414 98.902C65.1994 98.902 65.8884 99.201 66.4084 99.799C66.9371 100.397 67.2014 101.298 67.2014 102.503C67.2014 103.292 67.0801 103.959 66.8374 104.505C66.6034 105.042 66.2697 105.45 65.8364 105.727C65.4117 105.996 64.9091 106.13 64.3284 106.13C63.9731 106.13 63.6567 106.082 63.3794 105.987C63.1021 105.892 62.8637 105.77 62.6644 105.623C62.4737 105.467 62.3091 105.298 62.1704 105.116H62.0924C62.1097 105.263 62.1271 105.45 62.1444 105.675C62.1617 105.9 62.1704 106.095 62.1704 106.26V109.12H61.0264V99.032H61.9624L62.1184 99.981H62.1704C62.3091 99.7817 62.4737 99.5997 62.6644 99.435C62.8637 99.2703 63.0977 99.1403 63.3664 99.045C63.6437 98.9497 63.9687 98.902 64.3414 98.902ZM64.1334 99.864C63.6654 99.864 63.2884 99.955 63.0024 100.137C62.7164 100.31 62.5084 100.575 62.3784 100.93C62.2484 101.285 62.1791 101.736 62.1704 102.282V102.503C62.1704 103.075 62.2311 103.56 62.3524 103.959C62.4737 104.358 62.6774 104.661 62.9634 104.869C63.2581 105.077 63.6567 105.181 64.1594 105.181C64.5841 105.181 64.9307 105.064 65.1994 104.83C65.4767 104.596 65.6804 104.28 65.8104 103.881C65.9491 103.474 66.0184 103.01 66.0184 102.49C66.0184 101.693 65.8624 101.056 65.5504 100.579C65.2471 100.102 64.7747 99.864 64.1334 99.864ZM69.0244 106V99.032H70.1684V101.892H71.9754C72.5821 101.892 73.0804 101.966 73.4704 102.113C73.8604 102.26 74.1508 102.481 74.3414 102.776C74.5321 103.062 74.6274 103.426 74.6274 103.868C74.6274 104.301 74.5321 104.678 74.3414 104.999C74.1594 105.32 73.8691 105.567 73.4704 105.74C73.0804 105.913 72.5648 106 71.9234 106H69.0244ZM71.8194 105.077C72.3134 105.077 72.7164 104.995 73.0284 104.83C73.3404 104.657 73.4964 104.358 73.4964 103.933C73.4964 103.508 73.3534 103.222 73.0674 103.075C72.7814 102.919 72.3698 102.841 71.8324 102.841H70.1684V105.077H71.8194ZM75.7844 106V99.032H76.9284V106H75.7844Z" fill="white"/>
<path d="M47.3438 76.8021H37.875C33.2458 76.8021 29.4583 80.5896 29.4583 85.2187V86.2708H25.25C23.5246 86.2708 22.0938 87.7016 22.0938 89.4271C22.0938 91.1525 23.5246 92.5833 25.25 92.5833H75.75C77.4754 92.5833 78.9063 91.1525 78.9063 89.4271C78.9063 87.7016 77.4754 86.2708 75.75 86.2708H71.5417V85.2187C71.5417 80.5896 67.7542 76.8021 63.125 76.8021H53.6563V67.165C52.6042 67.2912 51.5521 67.3333 50.5 67.3333C49.4479 67.3333 48.3958 67.2912 47.3438 67.165V76.8021Z" fill="white"/>
<path d="M77.77 48.985C80.5475 47.9329 82.9883 46.2075 84.9241 44.2716C88.8379 39.937 91.405 34.7608 91.405 28.7008C91.405 22.6408 86.6495 17.8854 80.5895 17.8854H78.2329C75.4975 12.2883 69.7741 8.41663 63.125 8.41663H37.875C31.2258 8.41663 25.5025 12.2883 22.7671 17.8854H20.4104C14.3504 17.8854 9.59497 22.6408 9.59497 28.7008C9.59497 34.7608 12.1621 39.937 16.0758 44.2716C18.0116 46.2075 20.4525 47.9329 23.23 48.985C27.6066 59.7583 38.1275 67.3333 50.5 67.3333C62.8725 67.3333 73.3933 59.7583 77.77 48.985ZM62.4516 35.5604L59.8425 38.7587C59.4216 39.2216 59.1271 40.1475 59.1691 40.7787L59.4216 44.9029C59.59 47.4279 57.7804 48.7325 55.4237 47.8066L51.5941 46.2916C51.005 46.0812 49.995 46.0812 49.4058 46.2916L45.5762 47.8066C43.2196 48.7325 41.41 47.4279 41.5783 44.9029L41.8308 40.7787C41.8729 40.1475 41.5783 39.2216 41.1575 38.7587L38.5483 35.5604C36.9071 33.6245 37.6225 31.4783 40.0633 30.847L44.0612 29.837C44.6925 29.6687 45.45 29.0795 45.7866 28.5325L48.0171 25.0816C49.4058 22.9354 51.5941 22.9354 52.9829 25.0816L55.2133 28.5325C55.55 29.0795 56.3075 29.6687 56.9387 29.837L60.9366 30.847C63.3775 31.4783 64.0929 33.6245 62.4516 35.5604Z" fill="white"/>
</svg>
